<svg xmlns="http://www.w3.org/2000/svg" width="173.32223" height="42.82282" viewBox="0 0 173.32223 42.82282">
  <g id="Layer_2" data-name="Layer 2">
    <g id="Menu_closed" data-name="Menu closed">
      <path d="M64.95951,14.33131c2.56323,0,4.22168,1.5833,4.56094,4.44794l3.27932-.37683c-.48983-4.33495-3.35448-6.86033-7.76484-6.86033-5.35244,0-8.66934,3.73158-8.66934,9.87581,0,6.031,3.39232,9.87553,8.66934,9.87553,4.22168,0,7.04874-2.4878,7.72726-6.7849l-3.05306-.48983c-.4901,2.94006-2.07339,4.48551-4.63635,4.48551-3.35474,0-5.31487-2.6008-5.31487-7.12416C59.75791,16.97,61.718,14.33131,64.95951,14.33131Zm19.07174-2.78922c-5.31487,0-8.78261,3.73158-8.78261,9.87581,0,6.144,3.46774,9.87553,8.78261,9.87553,5.3146,0,8.78261-3.73157,8.78261-9.87553C92.81386,15.27367,89.34585,11.54209,84.03125,11.54209Zm0,16.96212c-3.39258,0-5.39029-2.41238-5.39029-7.08631,0-4.6742,1.99771-7.08659,5.39029-7.08659,3.39232,0,5.39,2.41239,5.39,7.08659C89.42128,26.09183,87.42357,28.50421,84.03125,28.50421ZM109.021,14.78384a5.833,5.833,0,0,0-5.54086-3.24175c-4.71178,0-8.02867,4.07084-8.02867,9.87581,0,5.91769,3.0909,9.87553,7.65156,9.87553a6.26805,6.26805,0,0,0,6.10639-3.95784v3.50559h3.01548V3.51342H109.021Zm.07542,7.08631c0,4.03326-1.9977,6.59622-5.12618,6.59622-3.20417,0-5.12646-2.63838-5.12646-7.04847,0-4.44794,1.92229-7.04874,5.12646-7.04874,3.166,0,5.12618,2.52538,5.12618,6.63406ZM124.738,11.54209c-5.39029,0-8.55634,3.807-8.55634,10.1018,0,6.21938,3.2039,9.64954,8.59392,9.64954a7.84023,7.84023,0,0,0,7.8781-5.23945L130.015,24.88563a5.05554,5.05554,0,0,1-5.01319,3.58074c-3.35474,0-5.57871-2.41239-5.61628-6.10612h13.38111V20.09844C132.76663,14.44458,129.82657,11.54209,124.738,11.54209Zm4.7872,8.21709H119.38552c.07542-3.54316,1.96013-5.69171,5.277-5.69171,3.09091,0,4.86262,1.80929,4.86262,5.2773Zm14.84952-8.21709c-5.3146,0-8.78233,3.73158-8.78233,9.87581,0,6.144,3.46773,9.87553,8.78233,9.87553s8.78288-3.73157,8.78288-9.87553C153.15756,15.27367,149.68929,11.54209,144.37468,11.54209Zm0,16.96212c-3.39231,0-5.39-2.41238-5.39-7.08631,0-4.6742,1.99771-7.08659,5.39-7.08659,3.39259,0,5.3903,2.41239,5.3903,7.08659C149.765,26.09183,147.76727,28.50421,144.37468,28.50421Zm21.33356-16.96212a6.45544,6.45544,0,0,0-6.144,3.95784V11.99435h-3.01575v26.197H159.753V27.86327a6.12322,6.12322,0,0,0,5.76712,3.43016c4.5604,0,7.80214-3.84457,7.80214-9.87553C173.32223,15.46235,170.26917,11.54209,165.70824,11.54209Zm-.94235,16.92428c-3.12875,0-5.08861-2.563-5.08861-6.63406V20.9278c0-4.07084,2.03555-6.55864,5.2016-6.55864,3.1666,0,5.05131,2.6008,5.05131,7.04874C169.93019,25.828,167.96978,28.46637,164.76589,28.46637ZM32.701,18.629A9.32569,9.32569,0,0,0,32.04953,0H17.41681A17.43663,17.43663,0,0,0,0,17.41681c0,.16446.00784.327.01243.49037H0V25.406A17.43663,17.43663,0,0,0,17.41681,42.82282H40.47639V24.13656H17.93394c-.015,0-.02946-.00216-.04447-.0023a2.73626,2.73626,0,1,1,.04447-5.47233H32.04953c.02345,0,.04609-.00338.06948-.00352v.00352A5.41,5.41,0,0,0,32.701,18.629Zm5.00724,21.42573H17.41681A14.66894,14.66894,0,0,1,2.8497,26.94727a17.41254,17.41254,0,0,0,14.56711,7.88662H37.70826ZM17.33882,26.87455a5.53449,5.53449,0,0,0,.573.03015v-.00109l.02217.00109H37.70826v5.16105H17.41681a14.64881,14.64881,0,0,1,0-29.29762H32.04953a6.55811,6.55811,0,0,1,5.42213,10.25393A5.36854,5.36854,0,0,0,32.119,7.92919H17.93394a9.48185,9.48185,0,0,0-.59512,18.94536ZM32.04953,15.89379H17.91177a5.50819,5.50819,0,0,0-5.49734,5.34542,6.712,6.712,0,0,1,5.51951-10.54189H32.119a2.59513,2.59513,0,0,1,.06981,5.18941C32.142,15.88771,32.09657,15.89379,32.04953,15.89379Z" fill="#fff"/>
    </g>
  </g>
</svg>
